<svg xmlns="http://www.w3.org/2000/svg" viewBox="0 0 164.678 150"><defs><style>.a{fill:#4d4d4d;opacity:0.4;}.a,.c{fill-rule:evenodd;}.b{font-size:25.265px;fill:#231815;font-family:TsukuARdGothic-Bold-83pv-RKSJ-H, Tsukushi A Round Gothic;}.c{fill:#009953;}</style></defs><path class="a" d="M23.946,21.8a4.37,4.37,0,0,1,0-2.813c.478-1.815,5.627-4.221,5.627-4.221S32.191,20,33.794,18.99s2.152-2.884,2.813-4.221a3.643,3.643,0,0,0,0-2.813l2.814-4.22s-.521-.478,0-1.407-.507-1.759,2.813-2.814,4.46,1.055,5.627,0A27.745,27.745,0,0,0,50.675.7c.759-.915,4.614-.956,5.627,0s3.671,2.659,4.22,1.407.929-.619,1.407,0,1,4.22,1.407,5.627,1.476,2.475,2.813,4.22.816,4.29,2.814,4.22a3.1,3.1,0,0,1,2.813,1.407,13.451,13.451,0,0,1-.391,3.129c-.272.774.5,1.293-2.58,1.139s-3.982-.5-4.911.144-1.5,2.987-3.372,4.028-3.128,1.933-3.254,3.1.834,1.767.441,2.526-1.779,1.924-1.473,3.1a8.556,8.556,0,0,0,1.349,2.369c.407.55.457,5.643.124,7.19-.121.562-4.776-.4-5.957-1.8S50.377,40.75,49.268,41.5c-.919.62-4.333.534-5.627,2.813s-4.039,7.1-4.3,6.488c-.4-.921-1.324-3.674-1.324-3.674s-1.8-3.363-1.407-4.221S35.2,41.5,35.2,41.5l-2.1-1.2s1.842-2.721,2.306-3.311,1.482-2.607,2.607-2.522.924-.412,2.978-1.86,2.471-1.233,2.781-3.077-1.539-3.5-1.539-3.5-1.73-1.041-2.813,0-2.17,2.814-2.814,2.814c-.879,0-2.813-2.814-2.813-2.814l-1.407-1.406s-1.518-1.65-2.242-1.319c-.615.282-3.3,2.309-3.3,2.309l-1.489.416s-1.885-.647-1.407-1.406S23.946,21.8,23.946,21.8ZM77.4,17.583H71.776L71.3,21.358l-.935.445s-4.976-.183-5.889-.143c-.891.039-1.066,1.371-2.448,2.981-2.092,2.438-.229.29-3.442,2.627-2.5,1.819-.739,3.528-.739,3.528a10.551,10.551,0,0,0-1.63,3.318c-.21,1.4,1.488,3.163,1.488,3.163v7.034a27.3,27.3,0,0,0,2.813,4.221c.8.764,5.4-2.548,5.8-3.4.3-.643-1.576-.819-1.576-.819a32.849,32.849,0,0,1-1.388-5.856c-.175-2.022,1.551.376,1.551.376a28.747,28.747,0,0,1,4.61-.075c.653.156,1.4,2.85,2.59,4.587,1.881,2.74.978,3.269,1.078,6.595S74.766,52.282,76,55.565c1.088,2.9.845,1.984,1.407,2.814s2.988,1.537,2.988,1.537,2.6-2.367,2.639-2.944,1.442,2.334,1.825,2.851c.943,1.269.38,1.766,1.9,1.27a57.73,57.73,0,0,1,8.1-1.272,30.158,30.158,0,0,0,3.3-2.709c.5-.538,1.152.966,1.757,1.8s1.247,1.236,3.247.687a8.886,8.886,0,0,0,2.382-1.216c.886-.506,3.124-3.5,2.814-4.22s-.493-.887-1.407-1.407-1.758-2.421-2.813-4.22.52-1.674,0-4.221-1.084-.662-2.814-1.407-1.477-1.125-1.407-2.813,2.87-3.671,2.814-4.22-1.548-1.858-2.814-2.814-.872,2.025-1.406,2.814-2.139.549-2.814,0a13.36,13.36,0,0,1-1.407-1.407l-4.22,1.407a28.407,28.407,0,0,1-4.22-1.407c-1.154-.618,1.688-4.193,2.813-4.22s1.407-1.407,1.407-1.407a24.486,24.486,0,0,0,4.22-1.407c2.195-.97.478-3.3,0-4.22s.211-3.1,0-4.22a39.1,39.1,0,0,0-1.406-4.221c-.282-.8-3.194-2.4-4.221-2.813s-2.729,3.08-2.813,4.22-5.627,2.814-5.627,2.814ZM9.472,34.993s1.747,2.989,3.792,3.889a31.379,31.379,0,0,0,3.47,1.047S17.8,41.811,18.319,42.9a13.139,13.139,0,0,0,2.814,4.221c1.7,1.8.97,1.486,3.165,1.288a5.334,5.334,0,0,1,3.869,1.525,3.874,3.874,0,0,0,0-2.813c-.535-1.871-1.871-2.138-2.814-2.814s.141-.929,0-2.813,1.211.014,2.814-1.407,1.406-1.407,1.406-1.407a6.081,6.081,0,0,0,2.162,1.19c1,.2.833.659,1.7.321s1.046-1.632,1.046-1.632.67-1.183,1.645-2.64c1-1.5,2.9-.94,4.091-2.553,1.156-1.558,3.149-1.787,3.419-3.126.284-1.407.389-1.611-.369-2.914-.791-1.36-1.654-2.041-2.952-1.746s-3.03,3.432-3.713,3.253c-.735-.192-1.958-1.675-2.813-2.814-.834-1.109-2.584-2.666-3.282-2.753s-1.683.962-1.683.962S26.814,25.979,25.574,26a2.781,2.781,0,0,1-1.84-1.093,4.211,4.211,0,0,0-2.6,1.114c-1.154,1.1-.985-.563-1.407-1.406s-1.984-3.432-1.407-4.221-2.714-.816-2.813-1.406-2.307,2.2-4.22,4.22.588,1.876,0,2.813c-.345.549,1.645,2.111,1.406,4.221s-1.9,1.365-2.813,1.406S9.472,34.993,9.472,34.993Zm18.7,16.352a1.349,1.349,0,0,1,.068-1.566A25.7,25.7,0,0,0,25.543,48.5a14.233,14.233,0,0,0-3,.035,40.429,40.429,0,0,1-3.652-4.444c-1-1.585-1.413-3.379-1.975-4a1.671,1.671,0,0,0-1.444-.448L12.8,38.722a10.314,10.314,0,0,1-2.439-2.428c-1.182-1.618-.483-4.644-.483-4.644l-4.22-1.406L2.845,28.837a30.12,30.12,0,0,0-1.407,4.22,19.589,19.589,0,0,1-1.406,4.22c-.324.591,1.927,2.083,2.813,2.814s1.407,0,1.407,0A11.977,11.977,0,0,0,7.065,41.5,11.98,11.98,0,0,1,9.879,42.9a3.229,3.229,0,0,0,2.813,1.407c2.167.127,2.814,2.814,2.814,2.814S17.475,49,16.913,49.938s1.632,1.463,2.813,4.221-1.984,2.053-2.813,2.813-2.645-.492-2.814-1.407-1.969-.689-1.407-1.406-1.1-1.689-2.813-4.221-.69-2.279-1.407-2.813-2.813-2.814-2.813-2.814v2.814s-2.082,4.008-2.814,4.22,3.137,3,4.22,4.22,2.927,2.251,4.221,4.221.042,3.909,0,5.627S9.724,68.24,9.879,71.04s3.587-2.8,4.22-2.814,3.911-4.8,4.22-5.627,1.562-.773,4.221-1.407,2.152-2.308,2.813-2.813,1.407,1.407,1.407,1.407a22.832,22.832,0,0,1,1.407,4.22c.267,1.646-1.871,1.027-2.814,2.813s4.22,1.407,4.22,1.407,5.824-2.926,7.034-4.22.929-3.784,0-4.22-.942-1.7-2.813-2.814-6.162-1.828-7.034-1.407S28.7,52.2,28.167,51.345ZM42.234,82.294s.282,2.7-1.407,4.22-3.812,1.168-4.22,2.813S35.2,93.548,35.2,93.548c3.315.405,3.123.533,5.627,0a15.55,15.55,0,0,0,4.221-1.407c1.308-.633,2.047.923,2.813,1.407.42.265-.587.066,2.814,1.407,2.222.875,4.838,2.676,6.864,1.3s2.278-3.109,4.393-3.109c2.647,0,3.195.1,4.473-1.319,2.163-2.4,2.9-3.1,2.757-4.253-.118-.938-.783-2.444-.853-3.457a41.445,41.445,0,0,0-1.182-4.791A13.2,13.2,0,0,0,64.842,75.1c-.535-.784-1.506-2.657-1.506-2.657l3.508-3.372s1.369-1.389,3.03-3.106a11.07,11.07,0,0,0,2.319-3.674c.725-1.291,2.4-3.915,2.4-3.915L76,55.565,74.59,52.752S73,50.614,73.183,49.938a21.4,21.4,0,0,0,0-4.22c-.085-1.8-.591-1.421-1.407-2.814s-1.544-4.084-2.813-4.22c-2.58-.275-3.884.6-4.221,0-.833-1.493-1.32-1.283-1.389-.643-.167,1.548,1.389,6.27,1.389,6.27s2.666.066,1.238,1.251c-1.565,1.3-1.919,1.887-3.58,2.562-.847.344-1.272.791-1.592.517-1.97-1.686-2.438-4.2-3.1-4.33a12.947,12.947,0,0,1-3.659-.494c-1.652-.585-.825-.091-1.876-.92-.984-.776-.948-2.409-2-1.909a17.943,17.943,0,0,1-3.653,1.318,4.691,4.691,0,0,0-3.027,2.224c-.492,1.209-.549.28-2.219,3.239-1.82,3.224-1.934,2.891-1.82,3.224a12.821,12.821,0,0,0,2.782,4.572c1.449,1.718,1.5,2.04,2.814,2.814s2.04,1.379,1.407,2.813-.31,3.264-1.407,4.221-7.034,4.22-7.034,4.22,5.458,1.393,7.034,0,4.459-3.7,4.22-2.814a5.629,5.629,0,0,1-1.407,2.814c-.97,1.028-2.785,1.659-2.813,2.813a15.635,15.635,0,0,1-1.407,4.221C43.149,77.876,42.234,82.294,42.234,82.294Zm-9.847-1.407a22.072,22.072,0,0,0,4.22-1.407c.675-.534,2.814-2.813,2.814-2.813V73.853H35.2a7.309,7.309,0,0,0-2.813,1.407,3.893,3.893,0,0,0-1.407,2.813ZM19.726,83.7a26,26,0,0,1-1.407,4.221c-.492.689,1.407,2.813,1.407,2.813s3.1-1.365,4.22-2.813,2.082-2.828,2.814-2.814,1.407-2.813,1.407-2.813,1.069-2.814,1.406-4.221-.872-3.137-1.406-4.22-.8-1.857-1.407-1.407a1.414,1.414,0,0,1-1.407,0,24.894,24.894,0,0,0-4.22,2.814,4.606,4.606,0,0,0-1.407,4.22Zm64.711,16.882c.38-1.9,1.758-2.111,1.407-4.221s2.5-5.388,2.813-8.44,1.294-3.63,1.407-5.627,3.362-6.556,4.22-7.034-.59-3,0-2.814,2.349-3.39,2.814-4.22,1.941-2.659,2.813-2.813,3.44-5.423,4.5-6.259c.612-.482-1.685.632-3.092.632-.916,0-2.546-2.5-2.813-2.814s-2.94,2.983-4.221,2.814-8.475,1.524-8.475,1.524L83.03,56.972A27.917,27.917,0,0,1,80.8,59.551c-.77.645-1.264-.336-1.968-.237S76,55.565,76,55.565L74.59,58.379s-.9,1.3-1.679,2.7c-.31.559-2.112,3.751-2.542,4.338a45.842,45.842,0,0,1-4.22,4.22,32.213,32.213,0,0,0-2.813,2.813s2.28,3.942,2.656,4.346c.406.436,2.3,7.766,2.971,9.722s-1.477,3.925-2.814,5.627-4.544.437-5.627,1.407-3.421,3.1-3.421,3.1l-3.719-.5-2.707-1.2L52.764,97.9a8.217,8.217,0,0,0,.972,3.21c.959,2,5.379,6.509,5.379,6.509l-1.406,4.221,3.837-.187s2.433,1.33,3.094,2.539.356,1.541.356,1.541l6.78,3.14s-.028,5.529,0,7.034c.059,3.165.015,3.989.015,3.989s5.05,2.539,7.019,1.638.97-2.308,1.407-4.22a7.27,7.27,0,0,0,0-4.22c-.366-.774,1.167-1.9,2.813-2.814s0-7.034,0-7.034S84.057,102.48,84.437,100.582Zm-52.05,37.982s5.951-.788,7.034-1.407,1.406,2.814,1.406,2.814.718,2.349,1.407,2.813,4.657-.464,5.627-1.406-.169-2.265,0-2.814-1.772-1.322-2.813-1.407.239-2.588-1.407-4.22.31-2.11,0-2.814-.76-2.236-1.407-4.22,1.407-1.407,1.407-1.407,1.646-1.97,1.407-2.813,1.407-7.034,1.407-7.034l2.813-1.407a5.9,5.9,0,0,1,2.814,2.814c.647,1.815,2.813,1.407,2.813,1.407l-1.407,2.813s-.45,1.717-1.406,1.407a2.666,2.666,0,0,1-1.407-1.407H48.949s-1.715-.991-2.494,0c-.957,1.216-.957,3.551,0,4.22s5.627,0,5.627,0a14.4,14.4,0,0,0,0,4.221,7.264,7.264,0,0,0,1.406,2.813v5.627s-1.252,3.558-1.406,4.221a23.451,23.451,0,0,1-1.449,2.883.6.6,0,0,1,.042-.07c.31-.534-3.415,5.3-2.814,5.627.763.409,2.814,0,2.814,0l2.813-2.813L56.3,145.6s1.013,1.266,2.813,0,2.49-2.476,4.221-4.22,1.476-1.464,2.813-1.407a5.831,5.831,0,0,0,1.407,0s.352-4.748,0-5.627c-.216-.54-2.814-1.407-2.814-1.407s.07-2.11,0-2.814,1.942-1.434,2.814-1.406,4.706,1.637,4.492,1.052c-.448-1.228-.272-5.273-.272-5.273v-5.627L69.038,117.6a11.033,11.033,0,0,1-2.191-1.015,3.316,3.316,0,0,1-2.207-2.4c-.31-.9-2-1.68-2.711-2.352-.678-.643-4.22,0-4.22,0l1.406-4.221s-1.969-2.011-3.061-3.344a13.637,13.637,0,0,1-2.566-3.689c-.886-1.9-.2-1.958-.937-3.049a30.062,30.062,0,0,0-1.876-2.578,12.317,12.317,0,0,1-4.22-2.814c-.641-.749-3.362.817-3.362.817l-4.376.935L35.2,93.548a25.224,25.224,0,0,1-2.813,0c-.872-.1-2.884.9-4.22,1.407a4.685,4.685,0,0,1-2.814,0l1.407,2.813v2.814s.872.829,1.407,1.406.267,3.166,0,4.221-2.814,2.813-2.814,2.813a13.42,13.42,0,0,0,2.814,2.814c1.069.534,2.954,2.137,2.813,2.813s2.814,3.6,2.814,4.22a21.576,21.576,0,0,1,0,4.221c-.267,1.632-1.871,1.041-2.814,2.813s0,4.22,0,4.22l-5.627-1.406c-2.011-.506-1.407,1.406-1.407,1.406a35.482,35.482,0,0,1,2.814,2.814c.527.879.979,5.307,1.407,5.627C28.636,138.916,32.387,138.564,32.387,138.564Z"/><text class="b" transform="translate(109.678 78.549)">Saga</text><path class="c" d="M9.348,34.9s1.77,2.986,3.844,3.885a32.152,32.152,0,0,0,3.518,1.047s1.082,1.88,1.607,2.972a13.108,13.108,0,0,0,2.853,4.217c1.725,1.8.984,1.485,3.209,1.287A5.438,5.438,0,0,1,28.3,49.828a3.814,3.814,0,0,0,0-2.81c-.542-1.87-1.9-2.136-2.852-2.811s.142-.928,0-2.811,1.227.014,2.852-1.406,1.426-1.405,1.426-1.405a6.19,6.19,0,0,0,2.192,1.189c1.013.2.844.658,1.728.321s1.061-1.631,1.061-1.631.679-1.182,1.668-2.638c1.017-1.5,2.936-.939,4.148-2.55,1.171-1.557,3.192-1.786,3.466-3.124.288-1.405.394-1.609-.374-2.91-.8-1.359-1.678-2.04-2.993-1.745s-3.072,3.428-3.764,3.25c-.746-.192-1.985-1.674-2.853-2.811-.845-1.108-2.62-2.663-3.328-2.75s-1.706.96-1.706.96-2.043,1.745-3.3,1.769a2.824,2.824,0,0,1-1.866-1.092,4.306,4.306,0,0,0-2.637,1.113c-1.17,1.095-1-.563-1.426-1.405s-2.012-3.429-1.427-4.217-2.752-.815-2.852-1.405-2.338,2.193-4.279,4.216.6,1.875,0,2.811c-.349.549,1.669,2.108,1.426,4.216s-1.925,1.365-2.852,1.406S9.348,34.9,9.348,34.9Z"/></svg>