<svg xmlns="http://www.w3.org/2000/svg" width="108.388" height="150.001" viewBox="0 0 108.388 150.001"><defs><style>.a{fill:#4d4d4d;opacity:0.4;isolation:isolate;}.a,.c{fill-rule:evenodd;}.b{fill:#231815;stroke-width:0.25px;}.b,.c{stroke:#dd5b0f;stroke-miterlimit:10;}.c{fill:#009953;stroke-width:0.5px;}</style></defs><path class="a" d="M23.946,21.8a4.371,4.371,0,0,1,0-2.813c.478-1.815,5.627-4.221,5.627-4.221S32.191,20,33.794,18.992s2.152-2.884,2.813-4.221a3.649,3.649,0,0,0,0-2.813l2.814-4.22s-.521-.478,0-1.407-.507-1.759,2.813-2.814,4.46,1.055,5.627,0A27.9,27.9,0,0,0,50.675.7c.759-.915,4.614-.956,5.627,0s3.671,2.659,4.22,1.407.929-.619,1.407,0,1,4.22,1.407,5.627,1.476,2.475,2.813,4.22.816,4.29,2.814,4.22a3.1,3.1,0,0,1,2.813,1.407,13.529,13.529,0,0,1-.391,3.129c-.272.774.5,1.293-2.58,1.139s-3.982-.5-4.911.144-1.5,2.987-3.372,4.028-3.128,1.933-3.254,3.1.834,1.767.441,2.526-1.779,1.924-1.473,3.1a8.554,8.554,0,0,0,1.349,2.369c.407.55.457,5.643.124,7.19-.121.562-4.776-.4-5.957-1.8s-1.375-1.756-2.484-1.006c-.919.62-4.333.534-5.627,2.813s-4.039,7.1-4.3,6.488c-.4-.921-1.324-3.674-1.324-3.674s-1.8-3.363-1.407-4.221S35.2,41.5,35.2,41.5l-2.1-1.2s1.842-2.721,2.306-3.311,1.482-2.607,2.607-2.522.924-.412,2.978-1.86,2.471-1.233,2.781-3.077-1.539-3.5-1.539-3.5-1.73-1.041-2.813,0-2.17,2.814-2.814,2.814c-.879,0-2.813-2.814-2.813-2.814l-1.407-1.406s-1.518-1.65-2.242-1.319c-.615.282-3.3,2.309-3.3,2.309l-1.489.416s-1.885-.647-1.407-1.406S23.946,21.8,23.946,21.8ZM77.4,17.585H71.776L71.3,21.36l-.935.445s-4.976-.183-5.889-.143c-.891.039-1.066,1.371-2.448,2.981-2.092,2.438-.229.29-3.442,2.627-2.5,1.819-.739,3.528-.739,3.528a10.508,10.508,0,0,0-1.63,3.318c-.21,1.4,1.488,3.163,1.488,3.163v7.034a27.256,27.256,0,0,0,2.813,4.221c.8.764,5.4-2.548,5.8-3.4.3-.643-1.576-.819-1.576-.819a32.815,32.815,0,0,1-1.388-5.856c-.175-2.022,1.551.376,1.551.376a28.613,28.613,0,0,1,4.61-.075c.653.156,1.4,2.85,2.59,4.587,1.881,2.74.978,3.269,1.078,6.595S74.766,52.284,76,55.567c1.088,2.9.845,1.984,1.407,2.814S80.4,59.918,80.4,59.918s2.6-2.367,2.639-2.944,1.442,2.334,1.825,2.851c.943,1.269.38,1.766,1.9,1.27a57.562,57.562,0,0,1,8.1-1.272,30.244,30.244,0,0,0,3.3-2.709c.5-.538,1.152.966,1.757,1.8s1.247,1.236,3.247.687a8.906,8.906,0,0,0,2.382-1.216c.886-.506,3.124-3.5,2.814-4.22s-.493-.887-1.407-1.407-1.758-2.421-2.813-4.22.52-1.674,0-4.221-1.084-.662-2.814-1.407-1.477-1.125-1.407-2.813,2.87-3.671,2.814-4.22-1.548-1.858-2.814-2.814-.872,2.025-1.406,2.814-2.139.549-2.814,0a13.35,13.35,0,0,1-1.407-1.407l-4.22,1.407a28.422,28.422,0,0,1-4.22-1.407c-1.154-.618,1.688-4.193,2.813-4.22s1.407-1.407,1.407-1.407a24.5,24.5,0,0,0,4.22-1.407c2.2-.97.478-3.3,0-4.22s.211-3.1,0-4.22a39.324,39.324,0,0,0-1.406-4.221c-.282-.8-3.194-2.4-4.221-2.813s-2.729,3.08-2.813,4.22S80.224,19,80.224,19ZM9.472,34.995s1.747,2.989,3.792,3.889a31.491,31.491,0,0,0,3.47,1.047S17.8,41.813,18.319,42.9a13.136,13.136,0,0,0,2.814,4.221c1.7,1.8.97,1.486,3.165,1.288a5.335,5.335,0,0,1,3.869,1.525,3.879,3.879,0,0,0,0-2.813c-.535-1.871-1.871-2.138-2.814-2.814s.141-.929,0-2.813,1.211.014,2.814-1.407,1.406-1.407,1.406-1.407a6.078,6.078,0,0,0,2.162,1.19c1,.2.833.659,1.7.321s1.046-1.632,1.046-1.632.67-1.183,1.645-2.64c1-1.5,2.9-.94,4.091-2.553,1.156-1.558,3.149-1.787,3.419-3.126.284-1.407.389-1.611-.369-2.914-.791-1.36-1.654-2.041-2.952-1.746s-3.03,3.432-3.713,3.253c-.735-.192-1.958-1.675-2.813-2.814-.834-1.109-2.584-2.666-3.282-2.753s-1.683.962-1.683.962-2.01,1.751-3.25,1.772a2.784,2.784,0,0,1-1.84-1.093,4.206,4.206,0,0,0-2.6,1.114c-1.154,1.1-.985-.563-1.407-1.406S17.743,21.185,18.32,20.4s-2.714-.816-2.813-1.406-2.307,2.2-4.22,4.22.588,1.876,0,2.813c-.345.549,1.645,2.111,1.406,4.221s-1.9,1.365-2.813,1.406S9.472,34.995,9.472,34.995Zm18.7,16.352a1.349,1.349,0,0,1,.068-1.566,25.455,25.455,0,0,0-2.7-1.279,14.191,14.191,0,0,0-3,.035,40.357,40.357,0,0,1-3.652-4.444c-1-1.585-1.413-3.379-1.975-4a1.67,1.67,0,0,0-1.444-.448L12.8,38.724A10.3,10.3,0,0,1,10.361,36.3c-1.182-1.618-.483-4.644-.483-4.644l-4.22-1.406L2.845,28.839a29.967,29.967,0,0,0-1.407,4.22,19.627,19.627,0,0,1-1.406,4.22c-.324.591,1.927,2.083,2.813,2.814s1.407,0,1.407,0A11.971,11.971,0,0,0,7.065,41.5a11.966,11.966,0,0,1,2.814,1.4,3.228,3.228,0,0,0,2.813,1.407c2.167.127,2.814,2.814,2.814,2.814S17.475,49,16.913,49.94s1.632,1.463,2.813,4.221-1.984,2.053-2.813,2.813-2.645-.492-2.814-1.407-1.969-.689-1.407-1.406-1.1-1.689-2.813-4.221-.69-2.279-1.407-2.813a39.626,39.626,0,0,1-2.813-2.814v2.814s-2.082,4.008-2.814,4.22,3.137,3,4.22,4.22,2.927,2.251,4.221,4.221.042,3.909,0,5.627-1.562,2.827-1.407,5.627,3.587-2.8,4.22-2.814,3.911-4.8,4.22-5.627,1.562-.773,4.221-1.407,2.152-2.308,2.813-2.813,1.407,1.407,1.407,1.407a22.875,22.875,0,0,1,1.407,4.22c.267,1.646-1.871,1.027-2.814,2.813s4.22,1.407,4.22,1.407,5.824-2.926,7.034-4.22.929-3.784,0-4.22-.942-1.7-2.813-2.814-6.162-1.828-7.034-1.407,1.94-3.365,1.407-4.22ZM42.234,82.3s.282,2.7-1.407,4.22-3.812,1.168-4.22,2.813S35.2,93.55,35.2,93.55c3.315.405,3.123.533,5.627,0a15.583,15.583,0,0,0,4.221-1.407c1.308-.633,2.047.923,2.813,1.407.42.265-.587.066,2.814,1.407,2.222.875,4.838,2.676,6.864,1.3s2.278-3.109,4.393-3.109c2.647,0,3.195.1,4.473-1.319,2.163-2.4,2.9-3.1,2.757-4.253-.118-.938-.783-2.444-.853-3.457a41.714,41.714,0,0,0-1.182-4.791A13.215,13.215,0,0,0,64.842,75.1c-.535-.784-1.506-2.657-1.506-2.657l3.508-3.372s1.369-1.389,3.03-3.106a11.079,11.079,0,0,0,2.319-3.674c.725-1.291,2.4-3.915,2.4-3.915L76,55.567l-1.41-2.813S73,50.616,73.183,49.94a21.405,21.405,0,0,0,0-4.22c-.085-1.8-.591-1.421-1.407-2.814s-1.544-4.084-2.813-4.22c-2.58-.275-3.884.6-4.221,0-.833-1.493-1.32-1.283-1.389-.643-.167,1.548,1.389,6.27,1.389,6.27s2.666.066,1.238,1.251c-1.565,1.3-1.919,1.887-3.58,2.562-.847.344-1.272.791-1.592.517-1.97-1.686-2.438-4.2-3.1-4.33a12.965,12.965,0,0,1-3.659-.494c-1.652-.585-.825-.091-1.876-.92-.984-.776-.948-2.409-2-1.909a17.992,17.992,0,0,1-3.653,1.318,4.687,4.687,0,0,0-3.027,2.224c-.492,1.209-.549.28-2.219,3.239C39.454,51,39.34,50.662,39.454,51a12.823,12.823,0,0,0,2.782,4.572c1.449,1.718,1.5,2.04,2.814,2.814s2.04,1.379,1.407,2.813-.31,3.264-1.407,4.221-7.034,4.22-7.034,4.22,5.458,1.393,7.034,0,4.459-3.7,4.22-2.814a5.63,5.63,0,0,1-1.407,2.814c-.97,1.028-2.785,1.659-2.813,2.813a15.687,15.687,0,0,1-1.407,4.221C43.149,77.878,42.234,82.3,42.234,82.3Zm-9.847-1.407a22.105,22.105,0,0,0,4.22-1.407c.675-.534,2.814-2.813,2.814-2.813V73.855H35.2a7.294,7.294,0,0,0-2.813,1.407,3.89,3.89,0,0,0-1.407,2.813ZM19.726,83.7a26.164,26.164,0,0,1-1.407,4.221c-.492.689,1.407,2.813,1.407,2.813s3.1-1.365,4.22-2.813,2.082-2.828,2.814-2.814S28.167,82.3,28.167,82.3s1.069-2.814,1.406-4.221-.872-3.137-1.406-4.22-.8-1.857-1.407-1.407a1.414,1.414,0,0,1-1.407,0,24.841,24.841,0,0,0-4.22,2.814,4.6,4.6,0,0,0-1.407,4.22Zm64.711,16.882c.38-1.9,1.758-2.111,1.407-4.221s2.5-5.388,2.813-8.44,1.294-3.63,1.407-5.627,3.362-6.556,4.22-7.034-.59-3,0-2.814,2.349-3.39,2.814-4.22,1.941-2.659,2.813-2.813,3.44-5.423,4.5-6.259c.612-.482-1.685.632-3.092.632-.916,0-2.546-2.5-2.813-2.814s-2.94,2.983-4.221,2.814-8.475,1.524-8.475,1.524l-2.78-4.338a28.044,28.044,0,0,1-2.23,2.579c-.77.645-1.264-.336-1.968-.237S76,55.567,76,55.567l-1.41,2.814s-.9,1.3-1.679,2.7c-.31.559-2.112,3.751-2.542,4.338a46.048,46.048,0,0,1-4.22,4.22,32.05,32.05,0,0,0-2.813,2.813s2.28,3.942,2.656,4.346c.406.436,2.3,7.766,2.971,9.722s-1.477,3.925-2.814,5.627-4.544.437-5.627,1.407-3.421,3.1-3.421,3.1l-3.719-.5-2.707-1.2L52.764,97.9a8.193,8.193,0,0,0,.972,3.21c.959,2,5.379,6.509,5.379,6.509l-1.406,4.221,3.837-.187s2.433,1.33,3.094,2.539.356,1.541.356,1.541l6.78,3.14s-.028,5.529,0,7.034c.059,3.165.015,3.989.015,3.989s5.05,2.539,7.019,1.638.97-2.308,1.407-4.22a7.274,7.274,0,0,0,0-4.22c-.366-.774,1.167-1.9,2.813-2.814s0-7.034,0-7.034S84.057,102.482,84.437,100.584Zm-52.05,37.982s5.951-.788,7.034-1.407,1.406,2.814,1.406,2.814.718,2.349,1.407,2.813,4.657-.464,5.627-1.406-.169-2.265,0-2.814-1.772-1.322-2.813-1.407.239-2.588-1.407-4.22.31-2.11,0-2.814-.76-2.236-1.407-4.22,1.407-1.407,1.407-1.407,1.646-1.97,1.407-2.813,1.407-7.034,1.407-7.034l2.813-1.407a5.9,5.9,0,0,1,2.814,2.814c.647,1.815,2.813,1.407,2.813,1.407l-1.407,2.813s-.45,1.717-1.406,1.407a2.664,2.664,0,0,1-1.407-1.407H48.949s-1.715-.991-2.494,0c-.957,1.216-.957,3.551,0,4.22s5.627,0,5.627,0a14.354,14.354,0,0,0,0,4.221,7.25,7.25,0,0,0,1.406,2.813v5.627s-1.252,3.558-1.406,4.221a23.686,23.686,0,0,1-1.449,2.883.448.448,0,0,1,.042-.07c.31-.534-3.415,5.3-2.814,5.627.763.409,2.814,0,2.814,0l2.813-2.813L56.3,145.6s1.013,1.266,2.813,0,2.49-2.476,4.221-4.22,1.476-1.464,2.813-1.407a5.81,5.81,0,0,0,1.407,0s.352-4.748,0-5.627c-.216-.54-2.814-1.407-2.814-1.407s.07-2.11,0-2.814,1.942-1.434,2.814-1.406,4.706,1.637,4.492,1.052c-.448-1.228-.272-5.273-.272-5.273v-5.627L69.038,117.6a11.032,11.032,0,0,1-2.191-1.015,3.315,3.315,0,0,1-2.207-2.4c-.31-.9-2-1.68-2.711-2.352-.678-.643-4.22,0-4.22,0l1.406-4.221s-1.969-2.011-3.061-3.344a13.627,13.627,0,0,1-2.566-3.689c-.886-1.9-.2-1.958-.937-3.049a30.223,30.223,0,0,0-1.876-2.578,12.32,12.32,0,0,1-4.22-2.814c-.641-.749-3.362.817-3.362.817l-4.376.935L35.2,93.55a25.382,25.382,0,0,1-2.813,0c-.872-.1-2.884.9-4.22,1.407a4.691,4.691,0,0,1-2.814,0L26.76,97.77v2.814s.872.829,1.407,1.406.267,3.166,0,4.221-2.814,2.813-2.814,2.813a13.43,13.43,0,0,0,2.814,2.814c1.069.534,2.954,2.137,2.813,2.813s2.814,3.6,2.814,4.22a21.57,21.57,0,0,1,0,4.221c-.267,1.632-1.871,1.041-2.814,2.813s0,4.22,0,4.22l-5.627-1.406c-2.011-.506-1.407,1.406-1.407,1.406a35.411,35.411,0,0,1,2.814,2.814c.527.879.979,5.307,1.407,5.627C28.636,138.918,32.387,138.566,32.387,138.566Z"/><path class="b" d="M47.571,68.215a5.319,5.319,0,0,1-.846,2.948,5.611,5.611,0,0,1-2.473,2.048,9.278,9.278,0,0,1-3.862.74,8.683,8.683,0,0,1-4.416-1.012,5.876,5.876,0,0,1-2-1.943,4.4,4.4,0,0,1-.771-2.363,1.6,1.6,0,0,1,1.64-1.616,1.4,1.4,0,0,1,.981.37,2.934,2.934,0,0,1,.685,1.1,7.337,7.337,0,0,0,.746,1.443,3.015,3.015,0,0,0,1.129.956,4.168,4.168,0,0,0,1.912.376,4.317,4.317,0,0,0,2.646-.758,2.282,2.282,0,0,0,1.018-1.894,2,2,0,0,0-.549-1.462,3.538,3.538,0,0,0-1.419-.857,23.87,23.87,0,0,0-2.325-.629A17.031,17.031,0,0,1,36.4,64.593a5.264,5.264,0,0,1-2.085-1.665,4.323,4.323,0,0,1-.771-2.622,4.5,4.5,0,0,1,.814-2.652,5.138,5.138,0,0,1,2.356-1.782,9.662,9.662,0,0,1,3.627-.623,8.962,8.962,0,0,1,2.881.413,6.09,6.09,0,0,1,2.017,1.1A4.615,4.615,0,0,1,46.411,58.2a3.311,3.311,0,0,1,.37,1.468,1.731,1.731,0,0,1-.463,1.178,1.474,1.474,0,0,1-1.153.525,1.329,1.329,0,0,1-.956-.315,4.243,4.243,0,0,1-.71-1.03,4.659,4.659,0,0,0-1.184-1.6,3.467,3.467,0,0,0-2.22-.574,3.85,3.85,0,0,0-2.289.623,1.813,1.813,0,0,0-.87,1.5,1.514,1.514,0,0,0,.3.938,2.506,2.506,0,0,0,.814.679,5.551,5.551,0,0,0,1.049.444q.53.159,1.751.469a27.616,27.616,0,0,1,2.77.789,8.436,8.436,0,0,1,2.109,1.048A4.322,4.322,0,0,1,47.083,65.9,5,5,0,0,1,47.571,68.215Z"/><path class="b" d="M58.957,72.05A10.37,10.37,0,0,1,56.6,73.475a6.58,6.58,0,0,1-2.56.476,4.849,4.849,0,0,1-2.276-.512,3.756,3.756,0,0,1-1.512-1.389,3.6,3.6,0,0,1-.53-1.9,3.4,3.4,0,0,1,.876-2.356A4.385,4.385,0,0,1,53,66.487q.321-.073,1.592-.333t2.178-.475q.906-.216,1.967-.524A3.513,3.513,0,0,0,58.2,63.2a2.4,2.4,0,0,0-1.968-.623,4.108,4.108,0,0,0-1.931.357,3.149,3.149,0,0,0-1.11,1.073q-.463.717-.654.944a1.072,1.072,0,0,1-.82.228,1.432,1.432,0,0,1-.981-.364,1.182,1.182,0,0,1-.413-.931,2.845,2.845,0,0,1,.629-1.727,4.5,4.5,0,0,1,1.961-1.382,8.857,8.857,0,0,1,3.319-.543,9.381,9.381,0,0,1,3.491.525,3.247,3.247,0,0,1,1.8,1.659,7.25,7.25,0,0,1,.524,3.01q0,1.183,0,2.011t-.019,1.838a6.765,6.765,0,0,0,.314,1.981,6.211,6.211,0,0,1,.315,1.326,1.241,1.241,0,0,1-.487.943,1.637,1.637,0,0,1-1.1.426,1.491,1.491,0,0,1-1.023-.487A7.2,7.2,0,0,1,58.957,72.05Zm-.222-4.872a16.992,16.992,0,0,1-2.153.574q-1.412.3-1.955.444a2.652,2.652,0,0,0-1.036.555A1.421,1.421,0,0,0,53.1,69.9a1.707,1.707,0,0,0,.58,1.3,2.151,2.151,0,0,0,1.518.537,3.947,3.947,0,0,0,1.844-.439,2.928,2.928,0,0,0,1.24-1.129,5.155,5.155,0,0,0,.456-2.516Z"/><path class="b" d="M77.511,62.724v9.783a10.27,10.27,0,0,1-.357,2.887,4.626,4.626,0,0,1-1.148,2,4.808,4.808,0,0,1-2.066,1.172,11.239,11.239,0,0,1-3.177.383,9.229,9.229,0,0,1-3.108-.487A5.391,5.391,0,0,1,65.544,77.2a2.3,2.3,0,0,1-.74-1.585,1.31,1.31,0,0,1,.42-1,1.431,1.431,0,0,1,1.012-.389,1.658,1.658,0,0,1,1.3.654c.18.222.368.446.561.672a3.309,3.309,0,0,0,.642.58,2.485,2.485,0,0,0,.844.358,4.957,4.957,0,0,0,1.135.117,4.611,4.611,0,0,0,2.031-.364,2.076,2.076,0,0,0,1.01-1.018,4.076,4.076,0,0,0,.34-1.4q.048-.745.074-2.4a5.541,5.541,0,0,1-1.8,1.653,4.906,4.906,0,0,1-2.424.567A5.111,5.111,0,0,1,67,72.779a5.512,5.512,0,0,1-1.944-2.418,8.908,8.908,0,0,1-.679-3.59,8.5,8.5,0,0,1,.414-2.739,5.749,5.749,0,0,1,1.178-2.06,5.039,5.039,0,0,1,1.764-1.264,5.527,5.527,0,0,1,2.2-.426,5.281,5.281,0,0,1,2.48.549,6.041,6.041,0,0,1,1.949,1.72V62.1a1.957,1.957,0,0,1,.432-1.357,1.427,1.427,0,0,1,1.11-.481,1.312,1.312,0,0,1,1.3.635A4.183,4.183,0,0,1,77.511,62.724Zm-9.758,4.269a4.659,4.659,0,0,0,.895,3.1,2.9,2.9,0,0,0,2.312,1.048,3.016,3.016,0,0,0,1.585-.45,3.306,3.306,0,0,0,1.216-1.357,4.745,4.745,0,0,0,.469-2.2,5.055,5.055,0,0,0-.907-3.207,2.894,2.894,0,0,0-2.387-1.148,2.806,2.806,0,0,0-2.314,1.1A4.926,4.926,0,0,0,67.753,66.993Z"/><path class="b" d="M88.8,72.05a10.37,10.37,0,0,1-2.362,1.425,6.582,6.582,0,0,1-2.561.476,4.848,4.848,0,0,1-2.275-.512,3.756,3.756,0,0,1-1.512-1.389,3.6,3.6,0,0,1-.53-1.9,3.4,3.4,0,0,1,.876-2.356,4.385,4.385,0,0,1,2.405-1.308q.321-.073,1.592-.333t2.178-.475q.906-.216,1.967-.524A3.5,3.5,0,0,0,88.04,63.2a2.4,2.4,0,0,0-1.967-.623,4.108,4.108,0,0,0-1.931.357,3.14,3.14,0,0,0-1.11,1.073q-.463.717-.654.944a1.074,1.074,0,0,1-.82.228,1.432,1.432,0,0,1-.981-.364,1.183,1.183,0,0,1-.414-.931,2.851,2.851,0,0,1,.629-1.727,4.509,4.509,0,0,1,1.962-1.382,8.853,8.853,0,0,1,3.319-.543,9.381,9.381,0,0,1,3.491.525,3.247,3.247,0,0,1,1.8,1.659,7.266,7.266,0,0,1,.524,3.01q0,1.183-.006,2.011t-.018,1.838a6.765,6.765,0,0,0,.314,1.981,6.211,6.211,0,0,1,.315,1.326,1.24,1.24,0,0,1-.488.943,1.633,1.633,0,0,1-1.1.426,1.493,1.493,0,0,1-1.024-.487A7.242,7.242,0,0,1,88.8,72.05Zm-.222-4.872a17.039,17.039,0,0,1-2.153.574c-.941.2-1.594.349-1.955.444a2.652,2.652,0,0,0-1.036.555,1.421,1.421,0,0,0-.494,1.153,1.707,1.707,0,0,0,.58,1.3,2.149,2.149,0,0,0,1.517.537,3.948,3.948,0,0,0,1.845-.439,2.919,2.919,0,0,0,1.239-1.129,5.141,5.141,0,0,0,.457-2.516Z"/><path class="c" d="M9.348,35.2s1.77,2.986,3.844,3.885a32.205,32.205,0,0,0,3.518,1.047s1.082,1.88,1.607,2.972a13.111,13.111,0,0,0,2.853,4.217c1.725,1.8.984,1.485,3.209,1.287A5.436,5.436,0,0,1,28.3,50.13a3.81,3.81,0,0,0,0-2.81c-.542-1.87-1.9-2.136-2.852-2.811s.142-.928,0-2.811,1.227.014,2.852-1.406,1.426-1.405,1.426-1.405a6.2,6.2,0,0,0,2.192,1.189c1.013.2.844.658,1.728.321s1.061-1.631,1.061-1.631.679-1.182,1.668-2.638c1.017-1.5,2.936-.939,4.148-2.55,1.171-1.557,3.192-1.786,3.466-3.124.288-1.405.394-1.609-.374-2.91-.8-1.359-1.678-2.04-2.993-1.745s-3.072,3.428-3.764,3.25c-.746-.192-1.985-1.674-2.853-2.811-.845-1.108-2.62-2.663-3.328-2.75s-1.706.96-1.706.96-2.043,1.745-3.3,1.769a2.826,2.826,0,0,1-1.866-1.092,4.3,4.3,0,0,0-2.637,1.113c-1.17,1.095-1-.563-1.426-1.405S17.73,21.4,18.315,20.616s-2.752-.815-2.852-1.405-2.338,2.193-4.279,4.216.6,1.875,0,2.811c-.349.549,1.669,2.108,1.426,4.216s-1.925,1.365-2.852,1.406S9.348,35.2,9.348,35.2Z"/></svg>