<svg xmlns="http://www.w3.org/2000/svg" viewBox="0 0 462.678 640.349"><defs><style>.a{fill:#4d4d4d;opacity:0.4;}.a,.c{fill-rule:evenodd;}.b{font-size:90px;fill:#231815;font-family:TsukuARdGothic-Bold-83pv-RKSJ-H, Tsukushi A Round Gothic;}.c{fill:#009953;}</style></defs><path class="a" d="M102.227,93.077s-2.041-4.263,0-12.011S126.249,63.05,126.249,63.05,137.421,85.4,144.265,81.066s9.19-12.309,12.011-18.016,0-12.011,0-12.011l12.011-18.016s-2.223-2.041,0-6.005-2.164-7.507,12.011-12.011,19.036,4.5,24.022,0A118.288,118.288,0,0,0,216.33,3c3.243-3.906,19.7-4.082,24.022,0s15.674,11.354,18.017,6,3.964-2.639,6,0,4.264,18.017,6,24.022,6.305,10.568,12.011,18.016,3.484,18.316,12.011,18.017a13.218,13.218,0,0,1,12.011,6.005s-.123,8.955-1.671,13.36c-1.162,3.3,2.137,5.519-11.014,4.862s-17-2.147-20.963.615-6.408,12.751-14.395,17.2-13.354,8.251-13.894,13.236,3.563,7.543,1.883,10.785-7.594,8.214-6.288,13.243c.858,3.3,4.016,7.767,5.758,10.112s1.952,24.091.53,30.694c-.516,2.4-20.387-1.727-25.43-7.673s-5.87-7.53-10.6-4.337c-3.923,2.646-18.5,2.281-24.022,12.01s-17.243,30.3-18.37,27.7c-1.7-3.93-5.652-15.686-5.652-15.686s-7.688-14.356-6-18.016-6.005-6-6.005-6l-8.965-5.124s7.864-11.617,9.847-14.139,6.325-11.128,11.128-10.765,3.946-1.759,12.714-7.941,10.547-5.264,11.87-13.134-6.567-14.957-6.567-14.957-7.387-4.445-12.011,0-9.264,12.011-12.011,12.011c-3.753,0-12.011-12.011-12.011-12.011l-6-6.006s-6.479-7.044-9.57-5.628c-2.625,1.2-14.1,9.855-14.1,9.855l-6.354,1.779s-8.047-2.763-6.006-6.006S102.227,93.077,102.227,93.077ZM330.434,75.061H306.412L304.4,91.177l-3.988,1.9s-21.245-.78-25.142-.61c-3.8.166-4.55,5.85-10.451,12.727-8.932,10.408-.977,1.237-14.694,11.213-10.677,7.765-3.155,15.061-3.155,15.061s-6.109,8.505-6.959,14.166c-.9,5.983,6.352,13.5,6.352,13.5v30.027s7.729,13.92,12.011,18.017c3.408,3.261,23.071-10.876,24.743-14.521,1.259-2.747-6.727-3.5-6.727-3.5.078.361-5.09-15.258-5.929-25-.743-8.633,6.624,1.6,6.624,1.6s15.679-1.284,19.679-.322c2.788.668,5.968,12.169,11.058,19.584,8.029,11.695,4.173,13.954,4.6,28.154.428,14.184,6.757,10,12.011,24.022,4.642,12.38,3.6,8.469,6.006,12.011s12.756,6.561,12.756,6.561,11.087-10.1,11.266-12.567,6.155,9.965,7.791,12.17c4.023,5.418,1.619,7.539,8.114,5.422,9.489-3.1,34.579-5.432,34.579-5.432s10.075-7.231,14.071-11.561c2.119-2.3,4.918,4.122,7.5,7.665s5.321,5.278,13.858,2.932c4.542-1.247,6.39-3.032,10.173-5.19s13.333-14.955,12.01-18.017-2.1-3.782-6-6-7.507-10.333-12.011-18.016,2.223-7.144,0-18.017-4.624-2.826-12.011-6-6.3-4.8-6-12.011,12.251-15.67,12.011-18.016-6.607-7.929-12.011-12.011-3.724,8.645-6.006,12.011-9.128,2.346-12.011,0a56.721,56.721,0,0,1-6-6.006l-18.016,6.006s-13.093-3.366-18.017-6.006,7.208-17.9,12.011-18.016,6.006-6.005,6.006-6.005A104.576,104.576,0,0,0,402.5,117.1c9.369-4.141,2.041-14.11,0-18.016s.9-13.213,0-18.017-4.8-14.591-6-18.016-13.633-10.269-18.017-12.011-11.65,13.149-12.011,18.017-24.021,12.01-24.021,12.01Zm-290,74.323s7.455,12.76,16.188,16.6c4.292,1.888,14.811,4.471,14.811,4.471s4.555,8.034,6.769,12.7a56.068,56.068,0,0,0,12.011,18.016c7.264,7.683,4.143,6.346,13.512,5.5s16.515,6.51,16.515,6.51,2.282-4.023,0-12.011-7.987-9.125-12.01-12.011.6-3.964,0-12.01,5.167.058,12.01-6.006,6.006-6,6.006-6,4.965,4.234,9.228,5.079,3.554,2.815,7.278,1.372,4.466-6.967,4.466-6.967,2.859-5.05,7.023-11.272c4.284-6.4,12.362-4.013,17.465-10.9,4.932-6.654,13.441-7.631,14.594-13.348,1.212-6.005,1.659-6.877-1.576-12.437-3.378-5.806-7.061-8.716-12.6-7.456s-12.935,14.65-15.85,13.888c-3.14-.821-8.358-7.151-12.011-12.011-3.559-4.736-11.03-11.382-14.011-11.753s-7.184,4.105-7.184,4.105-8.6,7.457-13.893,7.558c-4.235.081-7.856-4.667-7.856-4.667a17.976,17.976,0,0,0-11.105,4.757c-4.926,4.68-4.2-2.405-6-6.006s-8.469-14.65-6.006-18.016-11.588-3.484-12.011-6.006-9.846,9.372-18.016,18.017,2.512,8.009,0,12.011c-1.471,2.344,7.026,9.008,6.006,18.016s-8.108,5.83-12.011,6S40.437,149.384,40.437,149.384Zm79.806,69.808a5.763,5.763,0,0,1,.294-6.687s-8.61-4.627-11.493-5.472-12.822.148-12.822.148-10.877-11.528-15.591-18.969c-4.286-6.766-6.03-14.424-8.431-17.064s-6.164-1.912-6.164-1.912L54.648,165.3a44.054,44.054,0,0,1-10.413-10.362c-5.044-6.909-2.062-19.826-2.062-19.826l-18.017-6-12.01-6.005S6.081,138.358,6.14,141.121s-4.624,15.5-6,18.016,8.228,8.891,12.011,12.011,6,0,6,0,7.387,4.926,12.011,6.006,12.011,6,12.011,6,2.762,5.466,12.011,6,12.01,12.011,12.01,12.011,8.407,7.988,6.006,12.011,6.967,6.246,12.011,18.016S75.742,239.97,72.2,243.213s-11.29-2.1-12.011-6-8.407-2.944-6.005-6.006S49.5,224,42.173,213.186s-2.944-9.729-6.006-12.011-12.011-12.011-12.011-12.011v12.011s-8.888,17.113-12.01,18.017,13.392,12.791,18.016,18.016,12.492,9.606,18.016,18.016.182,16.691,0,24.022-6.668,12.07-6,24.022,15.312-11.952,18.016-12.011,16.7-20.48,18.016-24.022,6.669-3.3,18.017-6,9.19-9.853,12.011-12.011,6,6,6,6,4.865,10.991,6,18.017-7.987,4.387-12.01,12.01,18.016,6.006,18.016,6.006,24.86-12.492,30.027-18.016,3.965-16.152,0-18.017-4.023-7.266-12.011-12.011-26.3-7.805-30.027-6S122.525,222.851,120.243,219.192ZM180.3,351.311s1.2,11.53-6.006,18.017-16.274,4.985-18.016,12.01-6.005,18.017-6.005,18.017c14.148,1.73,13.33,2.275,24.021,0,8.768-1.865,12.43-3.3,18.017-6.006s8.741,3.942,12.011,6.006c1.791,1.132-2.507.284,12.01,6,9.486,3.739,20.655,11.425,29.3,5.536s9.726-13.271,18.756-13.271c11.3,0,13.639.423,19.094-5.632,9.233-10.25,12.391-13.231,11.77-18.157-.5-4-3.341-10.432-3.64-14.76s-2.181-8.961-5.049-20.45c-1.853-7.431-6.512-13.266-9.753-18.01-2.284-3.349-6.431-11.343-6.431-11.343l14.979-14.4s5.844-5.929,12.932-13.26,7.04-10.58,9.9-15.682c3.093-5.513,10.231-16.714,10.231-16.714l6-12.011-6-12.011s-6.786-9.125-6.006-12.011.361-10.333,0-18.016-2.521-6.064-6-12.011-6.591-17.438-12.011-18.016c-11.011-1.176-16.579,2.575-18.016,0-3.558-6.376-5.636-5.476-5.931-2.747-.714,6.609,5.931,26.768,5.931,26.768s11.38.279,5.285,5.339c-6.681,5.546-8.193,8.058-15.285,10.938-3.614,1.468-5.431,3.375-6.8,2.2-8.407-7.195-10.406-17.942-13.229-18.482s-8.306.478-15.618-2.11c-7.054-2.5-3.522-.39-8.01-3.928-4.2-3.312-4.045-10.285-8.552-8.15a76.411,76.411,0,0,1-15.594,5.629c-3.756.85-10.818,4.332-12.921,9.493s-2.342,1.195-9.473,13.828c-7.768,13.764-8.255,12.339-7.768,13.764,2.607,7.624,5.691,12.187,11.876,19.518s6.424,8.709,12.011,12.011,8.709,5.888,6,12.011-1.322,13.934-6,18.016-30.028,18.016-30.028,18.016,23.3,5.947,30.028,0,19.036-15.793,18.016-12.011-1.862,7.624-6,12.011-11.891,7.085-12.011,12.011-3.9,12.855-6.006,18.016S180.3,351.311,180.3,351.311Zm-42.038-6s15.133-3.724,18.016-6.006,12.011-12.011,12.011-12.011v-12.01H150.271a31.167,31.167,0,0,0-12.011,6,16.623,16.623,0,0,0-6.006,12.011ZM84.211,357.317s-3.9,15.072-6.006,18.016,6.006,12.011,6.006,12.011,13.213-5.83,18.016-12.011,8.888-12.07,12.011-12.011,6-12.011,6-12.011,4.563-12.011,6.006-18.016-3.724-13.4-6.006-18.016-3.424-7.929-6-6.006-6,0-6,0a106.309,106.309,0,0,0-18.017,12.011c-8.345,7.085-6,18.016-6,18.016Zm276.25,72.065c1.621-8.105,7.507-9.008,6-18.016s10.689-23,12.011-36.033,5.525-15.5,6.006-24.022,14.353-27.986,18.016-30.027-2.522-12.791,0-12.011,10.028-14.474,12.011-18.016,8.287-11.354,12.011-12.011,14.684-23.147,19.206-26.716c2.61-2.06-7.195,2.694-13.2,2.694-3.909,0-10.87-10.685-12.011-12.011s-12.55,12.732-18.016,12.011-36.182,6.51-36.182,6.51l-11.861-18.521s-6.771,8.715-9.507,11.008c-3.291,2.757-5.4-1.431-8.4-1.009s-12.12-16-12.12-16l-6,12.011s-3.854,5.55-7.165,11.509c-1.326,2.387-9.018,16.014-10.851,18.518-1.639,2.237-14.595,15.553-18.017,18.016s-12.011,12.011-12.011,12.011,9.734,16.826,11.341,18.552c1.731,1.859,9.8,33.151,12.681,41.5s-6.3,16.755-12.011,24.021-19.4,1.865-24.021,6.006-14.6,13.242-14.6,13.242l-15.88-2.127-11.556-5.11,8.921,12.556s-.036,5,4.149,13.7c4.092,8.515,22.963,27.788,22.963,27.788l-6,18.016,16.38-.794s10.386,5.674,13.21,10.835,1.519,6.58,1.519,6.58l28.945,13.407s-.12,23.6,0,30.027c.252,13.512.065,17.027.065,17.027s21.555,10.842,29.962,7,4.143-9.853,6.006-18.017,1.56-14.714,0-18.016,4.985-8.105,12.011-12.011,0-30.027,0-30.027S358.84,437.487,360.461,429.382ZM138.26,591.529s25.4-3.366,30.027-6.006,6,12.011,6,12.011,3.062,10.029,6.006,12.011,19.878-1.982,24.022-6-.722-9.666,0-12.011-7.566-5.642-12.011-6.006,1.02-11.048-6.006-18.016,1.323-9.008,0-12.011-3.243-9.547-6-18.016,6-6.006,6-6.006,7.026-8.41,6.006-12.01,6-30.028,6-30.028l12.011-6s9.248,4.264,12.011,12.011,12.011,6,12.011,6l-6.006,12.011s-1.92,7.331-6,6.006-6.006-6.006-6.006-6.006h-7.365s-7.323-4.232-10.651,0c-4.083,5.192-4.083,15.159,0,18.016s24.022,0,24.022,0-1.622,11.049,0,18.017a31.062,31.062,0,0,0,6,12.011v24.021s-5.345,15.19-6,18.017c-.6,2.58-6.184,12.31-6.184,12.31a2.441,2.441,0,0,1,.178-.3c1.323-2.282-14.576,22.643-12.01,24.021,3.255,1.748,12.01,0,12.01,0l12.011-12.011,12.011-6s4.325,5.407,12.011,0,10.63-10.568,18.016-18.016,6.305-6.246,12.011-6.006,6.006,0,6.006,0,1.5-20.268,0-24.022c-.921-2.3-12.011-6-12.011-6s.3-9.008,0-12.011,8.287-6.122,12.011-6,20.089,6.991,19.178,4.492c-1.913-5.243-1.162-22.509-1.162-22.509V507.453l-11.688-5.414s-1.05-.04-9.354-4.333c-4.487-2.317-6.921-2.986-9.422-10.24-1.323-3.83-8.545-7.172-11.574-10.041-2.9-2.741-18.016,0-18.016,0l6-18.016s-8.407-8.585-13.069-14.279c-4.82-5.885-7.17-7.643-10.953-15.748s-.853-8.357-4-13.014a127.87,127.87,0,0,0-8.009-11.008s-11.594-4.5-18.016-12.011c-2.733-3.2-14.348,3.49-14.348,3.49l-18.682,3.988-15.013-1.472a107.879,107.879,0,0,1-12.011,0c-3.724-.422-12.31,3.847-18.017,6s-12.01,0-12.01,0l6,12.011v12.011s3.724,3.542,6,6,1.141,13.513,0,18.017-12.01,12.011-12.01,12.011,7.448,9.729,12.01,12.01,12.612,9.126,12.011,12.011,12.011,15.377,12.011,18.017,1.141,11.049,0,18.016-7.988,4.445-12.011,12.011,0,18.016,0,18.016l-24.021-6c-8.586-2.159-6.006,6-6.006,6s10.683,9.794,12.011,12.011c2.252,3.753,4.179,22.656,6,24.022C122.246,593.03,138.26,591.529,138.26,591.529Z"/><text class="b" transform="translate(159.969 344.846)">Saga</text><path class="c" d="M40.437,149.384s7.455,12.76,16.188,16.6c4.292,1.888,14.811,4.471,14.811,4.471s4.555,8.034,6.769,12.7a56.068,56.068,0,0,0,12.011,18.016c7.264,7.683,4.143,6.346,13.512,5.5s16.515,6.51,16.515,6.51,2.282-4.023,0-12.011-7.987-9.125-12.01-12.011.6-3.964,0-12.01,5.167.058,12.01-6.006,6.006-6,6.006-6,4.965,4.234,9.228,5.079,3.554,2.815,7.278,1.372,4.466-6.967,4.466-6.967,2.859-5.05,7.023-11.272c4.284-6.4,12.362-4.013,17.465-10.9,4.932-6.654,13.441-7.631,14.594-13.348,1.212-6.005,1.659-6.877-1.576-12.437-3.378-5.806-7.061-8.716-12.6-7.456s-12.935,14.65-15.85,13.888c-3.14-.821-8.358-7.151-12.011-12.011-3.559-4.736-11.03-11.382-14.011-11.753s-7.184,4.105-7.184,4.105-8.6,7.457-13.893,7.558c-4.235.081-7.856-4.667-7.856-4.667a17.976,17.976,0,0,0-11.105,4.757c-4.926,4.68-4.2-2.405-6-6.006s-8.469-14.65-6.006-18.016-11.588-3.484-12.011-6.006-9.846,9.372-18.016,18.017,2.512,8.009,0,12.011c-1.471,2.344,7.026,9.008,6.006,18.016s-8.108,5.83-12.011,6S40.437,149.384,40.437,149.384Z"/></svg>